<svg xmlns="http://www.w3.org/2000/svg" version="1.1" xmlns:xlink="http://www.w3.org/1999/xlink" xmlns:svgjs="http://svgjs.dev/svgjs" width="100%" height="100%" viewBox="0 0 1000 600"><rect width="1000" height="600" x="0" y="0" fill="#000000"/><g><circle r="166.66666666666666" cx="393.61681620279944" cy="415.83914971858263" fill="#106ebe" transform="matrix(0.5507814390958005,0,0,0.5507814390958005,0,70.96350145339198)"/><path d="M341.11488704820476 490.8391633270619L341.11488704820476 340.8391621402232L431.1071096943921 340.8391621402232L431.1071096943921 355.85082935778087L446.11877691194974 355.85082935778087L446.11877691194974 475.8274961095043L431.1071096943921 475.8274961095043L431.1071096943921 490.8391633270619L341.11488704820476 490.8391633270619ZM401.122665588856 460.85471922152584L401.122665588856 445.8430520039682L416.1343328064137 445.8430520039682L416.1343328064137 385.8352734633169L401.122665588856 385.8352734633169L401.122665588856 370.82360624575927L371.09933115374076 370.82360624575927L371.09933115374076 460.85471922152584L401.122665588856 460.85471922152584Z " fill="#0ffcbe" transform="matrix(0.5507814390958005,0,0,0.5507814390958005,0,70.96350145339198)"/><path d="M643.6168325438101 490.8391633270619L643.6168325438101 340.8391621402232L733.6090551899974 340.8391621402232L733.6090551899974 355.85082935778087L748.6207224075551 355.85082935778087L748.6207224075551 475.8274961095043L733.6090551899974 475.8274961095043L733.6090551899974 490.8391633270619L643.6168325438101 490.8391633270619ZM703.6246110844614 460.85471922152584L703.6246110844614 445.8430520039682L718.636278302019 445.8430520039682L718.636278302019 385.8352734633169L703.6246110844614 385.8352734633169L703.6246110844614 370.82360624575927L673.6012766493461 370.82360624575927L673.6012766493461 460.85471922152584L703.6246110844614 460.85471922152584ZM763.6323896251128 370.82360624575927L763.6323896251128 340.8391621402232L793.6168337306488 340.8391621402232L793.6168337306488 370.82360624575927L763.6323896251128 370.82360624575927ZM763.6323896251128 490.8391633270619L763.6323896251128 385.8352734633169L793.6168337306488 385.8352734633169L793.6168337306488 490.8391633270619L763.6323896251128 490.8391633270619ZM838.6129450537425 370.82360624575927L838.6129450537425 385.8352734633169L853.6246122713001 385.8352734633169L853.6246122713001 370.82360624575927L883.6090563768362 370.82360624575927L883.6090563768362 385.8352734633169L913.6323908119514 385.8352734633169L913.6323908119514 370.82360624575927L943.6168349174875 370.82360624575927L943.6168349174875 385.8352734633169L958.6285021350451 385.8352734633169L958.6285021350451 490.8391633270619L928.6440580295091 490.8391633270619L928.6440580295091 400.8469406808745L898.6207235943938 400.8469406808745L898.6207235943938 490.8391633270619L868.6362794888577 490.8391633270619L868.6362794888577 400.8469406808745L838.6129450537425 400.8469406808745L838.6129450537425 490.8391633270619L808.6285009482065 490.8391633270619L808.6285009482065 370.82360624575927L838.6129450537425 370.82360624575927ZM988.6129462405811 490.8391633270619L988.6129462405811 475.8274961095043L973.6401693526027 475.8274961095043L973.6401693526027 430.8313847864106L988.6129462405811 430.8313847864106L988.6129462405811 415.819717568853L1048.6207247812324 415.819717568853L1048.6207247812324 400.8469406808745L973.6401693526027 400.8469406808745L973.6401693526027 385.8352734633169L988.6129462405811 385.8352734633169L988.6129462405811 370.82360624575927L1063.6323919987901 370.82360624575927L1063.6323919987901 385.8352734633169L1078.6440592163476 385.8352734633169L1078.6440592163476 490.8391633270619L1048.6207247812324 490.8391633270619L1048.6207247812324 475.8274961095043L1033.647947893254 475.8274961095043L1033.647947893254 490.8391633270619L988.6129462405811 490.8391633270619ZM1003.6246134581388 445.8430520039682L1003.6246134581388 460.85471922152584L1048.6207247812324 460.85471922152584L1048.6207247812324 445.8430520039682L1003.6246134581388 445.8430520039682ZM1108.6285033218837 490.8391633270619L1108.6285033218837 475.8274961095043L1093.616836104326 475.8274961095043L1093.616836104326 460.85471922152584L1153.6246146449776 460.85471922152584L1153.6246146449776 445.8430520039682L1108.6285033218837 445.8430520039682L1108.6285033218837 430.8313847864106L1093.616836104326 430.8313847864106L1093.616836104326 385.8352734633169L1108.6285033218837 385.8352734633169L1108.6285033218837 370.82360624575927L1168.636281862535 370.82360624575927L1168.636281862535 385.8352734633169L1183.6479490800928 385.8352734633169L1183.6479490800928 400.8469406808745L1123.6401705394414 400.8469406808745L1123.6401705394414 415.819717568853L1168.636281862535 415.819717568853L1168.636281862535 430.8313847864106L1183.6479490800928 430.8313847864106L1183.6479490800928 475.8274961095043L1168.636281862535 475.8274961095043L1168.636281862535 490.8391633270619L1108.6285033218837 490.8391633270619ZM1198.6207259680714 490.8391633270619L1198.6207259680714 460.85471922152584L1228.6440604031864 460.85471922152584L1228.6440604031864 490.8391633270619L1198.6207259680714 490.8391633270619ZM1258.6285045087222 370.82360624575927L1318.6362830493738 370.82360624575927L1318.6362830493738 340.8391621402232L1348.659617484489 340.8391621402232L1348.659617484489 490.8391633270619L1318.6362830493738 490.8391633270619L1318.6362830493738 475.8274961095043L1303.624615831816 475.8274961095043L1303.624615831816 490.8391633270619L1258.6285045087222 490.8391633270619L1258.6285045087222 475.8274961095043L1243.655727620744 475.8274961095043L1243.655727620744 385.8352734633169L1258.6285045087222 385.8352734633169L1258.6285045087222 370.82360624575927ZM1273.64017172628 460.85471922152584L1318.6362830493738 460.85471922152584L1318.6362830493738 400.8469406808745L1273.64017172628 400.8469406808745L1273.64017172628 460.85471922152584ZM1363.6323943724676 475.8274961095043L1363.6323943724676 385.8352734633169L1378.6440615900249 385.8352734633169L1378.6440615900249 370.82360624575927L1453.663507348234 370.82360624575927L1453.663507348234 385.8352734633169L1468.6362842362125 385.8352734633169L1468.6362842362125 445.8430520039682L1393.6557288075826 445.8430520039682L1393.6557288075826 460.85471922152584L1468.6362842362125 460.85471922152584L1468.6362842362125 475.8274961095043L1453.663507348234 475.8274961095043L1453.663507348234 490.8391633270619L1378.6440615900249 490.8391633270619L1378.6440615900249 475.8274961095043L1363.6323943724676 475.8274961095043ZM1393.6557288075826 400.8469406808745L1393.6557288075826 415.819717568853L1438.6518401306764 415.819717568853L1438.6518401306764 400.8469406808745L1393.6557288075826 400.8469406808745ZM1513.6323955593064 475.8274961095043L1513.6323955593064 460.85471922152584L1498.6596186713277 460.85471922152584L1498.6596186713277 445.8430520039682L1483.6479514537702 445.8430520039682L1483.6479514537702 370.82360624575927L1513.6323955593064 370.82360624575927L1513.6323955593064 430.8313847864106L1528.6440627768636 430.8313847864106L1528.6440627768636 445.8430520039682L1543.6557299944213 445.8430520039682L1543.6557299944213 430.8313847864106L1558.667397211979 430.8313847864106L1558.667397211979 370.82360624575927L1588.6518413175152 370.82360624575927L1588.6518413175152 445.8430520039682L1573.6401740999574 445.8430520039682L1573.6401740999574 460.85471922152584L1558.667397211979 460.85471922152584L1558.667397211979 475.8274961095043L1543.6557299944213 475.8274961095043L1543.6557299944213 490.8391633270619L1528.6440627768636 490.8391633270619L1528.6440627768636 475.8274961095043L1513.6323955593064 475.8274961095043Z " fill="#0ffcbe" transform="matrix(0.5507814390958005,0,0,0.5507814390958005,0,70.96350145339198)"/></g></svg>